<?xml version="1.0"?>
<svg xmlns="http://www.w3.org/2000/svg" xmlns:xlink="http://www.w3.org/1999/xlink" version="1.1" id="Capa_1" x="0px" y="0px" viewBox="0 0 273.758 273.758" style="enable-background:new 0 0 273.758 273.758;" xml:space="preserve" width="512px" height="512px"><g><g>
	<path d="M228.72,273.758H45.038c-7.233,0-13.9-3.904-17.441-10.211c-3.54-6.306-3.399-14.032,0.367-20.206l64.955-106.462   L27.964,30.417c-3.767-6.174-3.907-13.9-0.367-20.206C31.137,3.904,37.805,0,45.038,0H228.72c11.046,0,20,8.954,20,20   s-8.954,20-20,20H80.668l52.753,86.462c3.902,6.396,3.902,14.438,0,20.834l-52.753,86.462H228.72c11.046,0,20,8.954,20,20   C248.72,264.804,239.766,273.758,228.72,273.758z" data-original="#000000" class="active-path" data-old_color="#000000" fill="#FFFFFF"/>
</g></g> </svg>
