<?xml version="1.0"?>
<svg xmlns="http://www.w3.org/2000/svg" xmlns:xlink="http://www.w3.org/1999/xlink" version="1.1" id="Layer_1" x="0px" y="0px" viewBox="0 0 330 330" style="enable-background:new 0 0 330 330;" xml:space="preserve" width="512px" height="512px"><g><path id="XMLID_7_" d="M288.107,116.894c-5.858-5.858-15.355-5.858-21.213,0c-5.858,5.858-5.858,15.355,0,21.213L278.787,150H15  c-8.284,0-15,6.716-15,15c0,8.284,6.716,15,15,15h263.787l-11.894,11.893c-5.858,5.858-5.858,15.355,0,21.213  c2.929,2.929,6.768,4.394,10.606,4.394c3.839,0,7.678-1.464,10.607-4.394l37.5-37.5c5.858-5.858,5.858-15.355,0-21.213  L288.107,116.894z" data-original="#000000" class="active-path" data-old_color="#000000" fill="#FFFFFF"/></g> </svg>
