<?xml version="1.0"?>
<svg xmlns="http://www.w3.org/2000/svg" xmlns:xlink="http://www.w3.org/1999/xlink" version="1.1" id="Layer_1" x="0px" y="0px" viewBox="0 0 330 330" style="enable-background:new 0 0 330 330;" xml:space="preserve" width="512px" height="512px"><g><path id="XMLID_8_" d="M315,150H51.213l11.894-11.894c5.858-5.858,5.858-15.355,0-21.213c-5.858-5.858-15.355-5.858-21.213,0  l-37.5,37.5c-5.858,5.858-5.858,15.355,0,21.213l37.5,37.5c2.929,2.929,6.768,4.394,10.606,4.394c3.839,0,7.678-1.464,10.607-4.394  c5.858-5.858,5.858-15.355,0-21.213L51.213,180H315c8.284,0,15-6.716,15-15S323.284,150,315,150z" data-original="#000000" class="active-path" data-old_color="#000000" fill="#FFFFFF"/></g> </svg>
